<svg width="104" height="29" viewBox="0 0 104 29" fill="none" xmlns="http://www.w3.org/2000/svg">
<g clip-path="url(#clip0_168_155)">
<path d="M99.154 25.2518C101.194 25.2518 102.64 24.8961 103.716 24.1301V20.6556C102.611 21.3942 101.279 21.8593 99.4091 21.8593C96.2636 21.8593 94.96 19.5065 94.96 15.7857C94.96 11.8735 96.5469 9.87631 99.4374 9.87631C101.138 9.87631 102.81 10.4508 103.688 10.998V7.38669C102.753 6.89423 101.138 6.53857 98.9273 6.53857C93.2881 6.53857 90.3693 10.4508 90.3693 15.9225C90.3976 21.914 93.2597 25.2518 99.154 25.2518ZM71.5813 23.665V20.1905C70.221 21.0933 67.8973 21.8867 65.772 21.8867C62.5415 21.8867 61.323 20.4093 61.1246 17.3999H71.7796V15.1565C71.7796 8.89141 68.9175 6.53857 64.5251 6.53857C59.1409 6.53857 56.5905 10.5056 56.5905 15.9499C56.5905 22.215 59.7927 25.2518 65.4036 25.2518C68.2091 25.2518 70.2777 24.5131 71.5813 23.665ZM31.1431 6.86688V13.9801H25.2488V6.86688H20.8281V24.8961H25.2488V17.3725H31.1431V24.8961H35.5638V6.86688H31.1431ZM55.4854 21.5037H53.53V6.86688H40.6646V8.39895C40.6646 12.8037 40.3813 18.4942 38.8227 21.5037H37.4058V28.9999H41.4864V24.8961H51.3764V28.9999H55.457V21.5037H55.4854ZM85.6652 24.8961H90.681L83.5965 15.1839L89.8309 6.86688H85.3818L79.1475 15.1839V6.86688H74.7268V24.8961H79.1475V16.032L85.6652 24.8961ZM64.4118 9.87631C66.5938 9.87631 67.2739 11.6273 67.2739 13.898V14.2537H61.1246C61.2379 11.381 62.3148 9.87631 64.4118 9.87631ZM49.1093 21.5037H42.875C44.0935 18.7952 44.4336 13.8706 44.4336 10.7518V10.2046H49.1093V21.5037Z" fill="white"/>
<path d="M17.1444 24.8962H12.6387V3.36509H10.6267C6.94278 3.36509 5.0158 5.1434 5.0158 7.79717C5.0158 10.8066 6.34768 12.2019 9.09646 13.9802L11.3635 15.4575L4.84578 24.8962H0L5.86594 16.4698C2.49373 14.1443 0.595095 11.8736 0.595095 8.0434C0.595095 3.25566 4.05232 0 10.5984 0H17.1161V24.8962H17.1444Z" fill="white"/>
</g>
<defs>
<clipPath id="clip0_168_155">
<rect width="104" height="29" fill="white"/>
</clipPath>
</defs>
</svg>
