<svg width="88" height="29" viewBox="0 0 88 29" fill="none" xmlns="http://www.w3.org/2000/svg">
<g clip-path="url(#clip0_168_165)">
<path d="M83.9534 10.6812H87.991C87.4804 6.68115 84.6103 4.57861 80.6211 4.57861C76.5837 4.57861 73.8838 6.75812 73.8838 10.5017C73.8838 14.7581 77.3619 15.7067 79.2105 16.0915C81.5941 16.5786 83.9291 16.63 83.9291 18.7837C83.9291 20.2453 82.7616 20.9632 81.1077 20.9632C79.0646 20.9632 77.7026 19.8863 77.362 17.9377H73.373C73.6162 22.1428 76.5108 24.3991 80.7673 24.3991C84.7075 24.3991 87.9423 22.5017 87.9423 18.3992C87.9423 13.9888 84.221 13.194 81.6185 12.7837C79.8428 12.5017 77.8971 12.2453 77.8971 10.2709C77.8971 8.88631 78.8943 8.04019 80.5726 8.04019C82.5184 8.04019 83.6858 9.1941 83.9534 10.6812Z" fill="white"/>
<path d="M71.1586 5.21973H67.3398V23.8094H71.1586V5.21973Z" fill="white"/>
<path d="M55.812 17.322H60.7982C60.0198 19.3222 58.2685 20.2707 56.2497 20.2707C52.6987 20.2707 51.0448 17.3733 51.0448 14.5015C51.0448 11.6041 52.6013 8.6554 56.2255 8.6554C58.4389 8.6554 60.0927 9.73232 60.7252 11.6554L64.8357 11.6554C64.1304 7.32214 60.5306 4.83496 56.2742 4.83496C51.0204 4.83496 47.0801 8.60408 47.0801 14.5528C47.0801 20.5785 51.3608 24.1426 56.2497 24.1426C61.0657 24.1426 64.8357 20.8349 64.8357 15.6554V14.1426H55.812V17.322Z" fill="white"/>
<path d="M38.3467 4.83496C33.9686 4.83496 30.7336 7.73232 30.7579 12.5528H34.6983C34.6496 10.4503 35.9143 8.52723 38.1521 8.52723C40.0979 8.52723 41.2411 9.96314 41.2411 11.6041C41.2411 13.2451 40.0979 14.1682 37.9818 15.1683C35.0874 16.5272 33.02 17.399 30.9039 18.1683V23.8092H45.6435V20.0143H35.5246C35.5246 20.0143 35.5583 20.0032 35.5749 19.998C37.296 19.4482 38.589 18.8509 40.1223 18.1426C43.4058 16.6042 45.2787 14.681 45.2787 11.399C45.2787 7.37333 42.4573 4.83496 38.3467 4.83496Z" fill="white"/>
<path d="M20.3971 17.2709C15.4352 17.2966 14.6325 20.4503 14.365 23.117L14.2434 24.2965H13.2461L13.1245 23.117C12.857 20.4503 12.0301 17.2965 7.23842 17.2709C6.43578 15.5272 6.09526 14.117 6.09526 12.5272C6.09526 8.55296 9.18428 4.83491 13.7569 4.83491C18.3296 4.83491 21.3699 8.52718 21.3699 12.553C21.37 14.117 21.224 15.5272 20.3971 17.2709ZM13.7083 0.0144043C6.1683 0.0144043 -0.00976562 6.52727 -0.00976562 14.5015C-0.00976562 22.5016 6.1683 29.0143 13.7083 29.0143C21.3213 29.0143 27.475 22.5016 27.475 14.5015C27.475 6.52729 21.3213 0.0144043 13.7083 0.0144043Z" fill="white"/>
</g>
<defs>
<clipPath id="clip0_168_165">
<rect width="88" height="29" fill="white"/>
</clipPath>
</defs>
</svg>
