<svg width="89" height="31" viewBox="0 0 89 31" fill="none" xmlns="http://www.w3.org/2000/svg">
<g clip-path="url(#clip0_168_158)">
<path d="M37.8732 15.8975C37.8732 20.2005 34.6044 23.3712 30.5928 23.3712C26.5813 23.3712 23.3125 20.2005 23.3125 15.8975C23.3125 11.5643 26.5813 8.42383 30.5928 8.42383C34.6044 8.42383 37.8732 11.5643 37.8732 15.8975ZM34.6862 15.8975C34.6862 13.2086 32.7917 11.3688 30.5928 11.3688C28.394 11.3688 26.4995 13.2086 26.4995 15.8975C26.4995 18.5595 28.394 20.4262 30.5928 20.4262C32.7917 20.4262 34.6862 18.5561 34.6862 15.8975Z" fill="white"/>
<path d="M53.5802 15.8975C53.5802 20.2005 50.3114 23.3712 46.2999 23.3712C42.2883 23.3712 39.0195 20.2005 39.0195 15.8975C39.0195 11.5676 42.2883 8.42383 46.2999 8.42383C50.3114 8.42383 53.5802 11.5643 53.5802 15.8975ZM50.3932 15.8975C50.3932 13.2086 48.4987 11.3688 46.2999 11.3688C44.101 11.3688 42.2065 13.2086 42.2065 15.8975C42.2065 18.5595 44.101 20.4262 46.2999 20.4262C48.4987 20.4262 50.3932 18.5561 50.3932 15.8975Z" fill="white"/>
<path d="M68.6315 8.87535V22.293C68.6315 27.8123 65.4707 30.0665 61.734 30.0665C58.2166 30.0665 56.0996 27.6438 55.3012 25.6625L58.0759 24.4731C58.57 25.6895 59.7806 27.1249 61.7308 27.1249C64.1227 27.1249 65.6049 25.6052 65.6049 22.7445V21.6696H65.4936C64.7803 22.576 63.4061 23.3678 61.6719 23.3678C58.0432 23.3678 54.7188 20.1128 54.7188 15.9245C54.7188 11.7058 58.0432 8.42383 61.6719 8.42383C63.4028 8.42383 64.7771 9.21568 65.4936 10.0951H65.6049V8.87872H68.6315V8.87535ZM65.8307 15.9245C65.8307 13.2928 64.1259 11.3688 61.9565 11.3688C59.7577 11.3688 57.9156 13.2928 57.9156 15.9245C57.9156 18.5292 59.7577 20.4262 61.9565 20.4262C64.1259 20.4262 65.8307 18.5292 65.8307 15.9245Z" fill="white"/>
<path d="M73.6221 1.01099V22.9132H70.5137V1.01099H73.6221Z" fill="white"/>
<path d="M85.7339 18.3575L88.2075 20.0558C87.4092 21.2722 85.4852 23.368 82.1608 23.368C78.038 23.368 74.959 20.0861 74.959 15.8943C74.959 11.4499 78.0642 8.42065 81.8041 8.42065C85.5703 8.42065 87.4124 11.5072 88.0145 13.1751L88.345 14.0242L78.6433 18.1621C79.3861 19.6615 80.5411 20.4264 82.1608 20.4264C83.7837 20.4264 84.9093 19.6042 85.7339 18.3575ZM78.1198 15.6686L84.605 12.8954C84.2484 11.9621 83.1751 11.3117 81.9121 11.3117C80.2924 11.3117 78.038 12.7842 78.1198 15.6686Z" fill="white"/>
<path d="M11.5465 13.9534V10.7827H21.9222C22.0236 11.3353 22.076 11.989 22.076 12.6966C22.076 15.0755 21.4445 18.0171 19.4092 20.113C17.4297 22.2358 14.9003 23.368 11.5498 23.368C5.33939 23.368 0.117188 18.1587 0.117188 11.7632C0.117188 5.36779 5.33939 0.158447 11.5498 0.158447C14.9854 0.158447 17.4329 1.54671 19.2718 3.35616L17.0992 5.59356C15.7805 4.31986 13.994 3.32921 11.5465 3.32921C7.01142 3.32921 3.4645 7.09301 3.4645 11.7632C3.4645 16.4334 7.01142 20.1973 11.5465 20.1973C14.4881 20.1973 16.1634 18.9808 17.2366 17.8756C18.107 16.9793 18.6796 15.6989 18.9053 13.9501L11.5465 13.9534Z" fill="white"/>
</g>
<defs>
<clipPath id="clip0_168_158">
<rect width="89" height="31" fill="white"/>
</clipPath>
</defs>
</svg>
