<svg xmlns="http://www.w3.org/2000/svg" width="36" height="36" fill="none"><g clip-path="url(#a)"><path fill="#fff" fill-rule="evenodd" d="M17.25 4.5a6.753 6.753 0 0 1 6.504 4.938l.078.307 2.805-.7a1.5 1.5 0 0 1 1.85 1.26l.013.195v2.715a9.774 9.774 0 0 1 2.046 2.823l.207.462h.747a1.5 1.5 0 0 1 1.49 1.325L33 18v4.5a1.501 1.501 0 0 1-.667 1.248l-.163.093-1.752.877a9.788 9.788 0 0 1-3.03 3.488l-.388.261V30a1.5 1.5 0 0 1-1.325 1.49l-.175.01H21a1.5 1.5 0 0 1-1.49-1.325L19.5 30H18a1.5 1.5 0 0 1-1.325 1.49l-.175.01H12a1.5 1.5 0 0 1-1.49-1.325L10.5 30v-1.533a9.762 9.762 0 0 1-4.281-6.151 4.503 4.503 0 0 1-3.21-4.04L3 18v-.75a1.5 1.5 0 0 1 2.99-.175l.01.175V18c0 .222.048.433.135.622a9.756 9.756 0 0 1 4.407-6.616A6.75 6.75 0 0 1 17.25 4.5Zm6.75 12a1.5 1.5 0 1 0 0 3 1.5 1.5 0 0 0 0-3Zm-6.75-9a3.75 3.75 0 0 0-3.717 3.254 9.778 9.778 0 0 1 2.217-.254h5.066l.105-.025A3.75 3.75 0 0 0 17.25 7.5Z" clip-rule="evenodd"/></g><defs><clipPath id="a"><path fill="#fff" d="M0 0h36v36H0z"/></clipPath></defs></svg>