<svg xmlns="http://www.w3.org/2000/svg" width="34" height="34" fill="none"><path fill="#fff" d="M17 2.833A14.167 14.167 0 1 0 31.168 17c0-1.643-.297-3.273-.864-4.803l-2.267 2.267c.199.836.298 1.686.298 2.536A11.333 11.333 0 1 1 17.001 5.667c.85 0 1.7.099 2.535.297l2.281-2.28a14.31 14.31 0 0 0-4.816-.85Zm9.917 0L21.251 8.5v2.125l-3.613 3.613c-.212-.071-.425-.071-.637-.071A2.833 2.833 0 1 0 19.834 17c0-.212 0-.425-.07-.637l3.612-3.613H25.5l5.666-5.667h-4.25v-4.25ZM17.001 8.5a8.5 8.5 0 1 0 8.5 8.5h-2.834a5.667 5.667 0 1 1-5.666-5.667V8.5Z"/></svg>