<svg xmlns="http://www.w3.org/2000/svg" width="33" height="33" fill="none"><circle cx="16.5" cy="16.5" r="16.5" fill="url(#a)" fill-opacity=".85"/><circle cx="16.5" cy="16.5" r="16" stroke="url(#b)" stroke-opacity=".18"/><path fill="#fff" d="M19.91 7h-6.82c-.565 0-1.107.227-1.507.632-.4.405-.624.954-.624 1.527v14.682c0 .572.225 1.122.624 1.527.4.405.942.632 1.507.632h6.82c.566 0 1.108-.227 1.508-.632.4-.405.624-.954.624-1.527V9.159c0-.573-.224-1.122-.624-1.527A2.118 2.118 0 0 0 19.911 7ZM16.5 25.136a1.286 1.286 0 0 1-1.278-1.295c0-.717.571-1.296 1.279-1.296.707 0 1.278.58 1.278 1.296 0 .717-.57 1.295-1.278 1.295Zm3.837-3.454h-7.673V9.59h7.673v12.09Z"/><defs><radialGradient id="a" cx="0" cy="0" r="1" gradientTransform="rotate(44.002 -.73 .743) scale(45.4439 35.6282)" gradientUnits="userSpaceOnUse"><stop stop-color="#fff" stop-opacity=".31"/><stop offset="1" stop-color="#fff" stop-opacity=".07"/></radialGradient><radialGradient id="b" cx="0" cy="0" r="1" gradientTransform="rotate(90 0 16.5) scale(16.5)" gradientUnits="userSpaceOnUse"><stop stop-color="#fff"/><stop offset="1" stop-color="#fff" stop-opacity="0"/></radialGradient></defs></svg>