<svg xmlns="http://www.w3.org/2000/svg" width="73" height="37" fill="none"><path fill="url(#a)" d="M0 37 16.18 0h12.266l16.179 37H31.724L19.774 5.92h4.865L12.689 37H0Zm9.623-6.449 3.172-8.985H29.82l3.173 8.985H9.623Z"/><path fill="url(#b)" d="M37.892 37V0h32.094v9.409H50.16v4.281h8.83c4.512 0 7.966.969 10.363 2.907C71.784 18.5 73 21.267 73 24.896c0 3.77-1.375 6.73-4.124 8.88C66.126 35.926 62.302 37 57.402 37h-19.51Zm12.267-8.721h6.398c1.233 0 2.185-.265 2.855-.793.705-.529 1.057-1.287 1.057-2.273 0-1.903-1.304-2.854-3.913-2.854H50.16v5.92Z"/><defs><linearGradient id="a" x1="0" x2="29.19" y1="0" y2="59.806" gradientUnits="userSpaceOnUse"><stop stop-color="#D31027"/><stop offset="1" stop-color="#EA384D"/></linearGradient><linearGradient id="b" x1="0" x2="29.19" y1="0" y2="59.806" gradientUnits="userSpaceOnUse"><stop stop-color="#D31027"/><stop offset="1" stop-color="#EA384D"/></linearGradient></defs></svg>